<mxfile host="Electron" agent="Mozilla/5.0 (Windows NT 10.0; Win64; x64) AppleWebKit/537.36 (KHTML, like Gecko) draw.io/25.0.2 Chrome/128.0.6613.186 Electron/32.2.5 Safari/537.36" version="25.0.2">
  <diagram id="R2lEEEUBdFMjLlhIrx00" name="Page-1">
    <mxGraphModel dx="2213" dy="1889" grid="1" gridSize="10" guides="1" tooltips="1" connect="1" arrows="1" fold="1" page="1" pageScale="1" pageWidth="850" pageHeight="1100" math="0" shadow="0" extFonts="Permanent Marker^https://fonts.googleapis.com/css?family=Permanent+Marker">
      <root>
        <mxCell id="0" />
        <mxCell id="1" parent="0" />
        <mxCell id="P38OSJ2cjVZlPIJOjbsQ-1" value="PGameRoomManager (DI)" style="swimlane;fontStyle=1;align=center;verticalAlign=top;childLayout=stackLayout;horizontal=1;startSize=26;horizontalStack=0;resizeParent=1;resizeParentMax=0;resizeLast=0;collapsible=1;marginBottom=0;whiteSpace=wrap;html=1;strokeWidth=3;" parent="1" vertex="1">
          <mxGeometry x="40" y="40" width="280" height="144" as="geometry" />
        </mxCell>
        <mxCell id="P38OSJ2cjVZlPIJOjbsQ-2" value="- publicGameRooms:&amp;nbsp;&lt;span style=&quot;background-color: initial;&quot;&gt;LinkedHashMap&lt;/span&gt;&lt;div&gt;&lt;span style=&quot;background-color: initial;&quot;&gt;&amp;nbsp; &amp;lt;[gameRoomID], PublicGameRoom&amp;gt;&lt;/span&gt;&lt;div&gt;&lt;div&gt;- belonging:&amp;nbsp;&lt;span style=&quot;background-color: initial;&quot;&gt;LinkedHashMap&lt;/span&gt;&lt;/div&gt;&lt;div&gt;&lt;span style=&quot;background-color: initial;&quot;&gt;&amp;nbsp; &amp;lt;[userID], [gameRoomID]&amp;gt;&lt;/span&gt;&lt;/div&gt;&lt;/div&gt;&lt;div&gt;- maxRoomNum: int = 100 (Constant)&lt;/div&gt;&lt;/div&gt;" style="text;strokeColor=none;fillColor=none;align=left;verticalAlign=top;spacingLeft=4;spacingRight=4;overflow=hidden;rotatable=0;points=[[0,0.5],[1,0.5]];portConstraint=eastwest;whiteSpace=wrap;html=1;" parent="P38OSJ2cjVZlPIJOjbsQ-1" vertex="1">
          <mxGeometry y="26" width="280" height="84" as="geometry" />
        </mxCell>
        <mxCell id="P38OSJ2cjVZlPIJOjbsQ-3" value="" style="line;strokeWidth=1;fillColor=none;align=left;verticalAlign=middle;spacingTop=-1;spacingLeft=3;spacingRight=3;rotatable=0;labelPosition=right;points=[];portConstraint=eastwest;strokeColor=inherit;" parent="P38OSJ2cjVZlPIJOjbsQ-1" vertex="1">
          <mxGeometry y="110" width="280" height="8" as="geometry" />
        </mxCell>
        <mxCell id="P38OSJ2cjVZlPIJOjbsQ-4" value="+ whereBelong([userID] userID): [gameRoomID]" style="text;strokeColor=none;fillColor=none;align=left;verticalAlign=top;spacingLeft=4;spacingRight=4;overflow=hidden;rotatable=0;points=[[0,0.5],[1,0.5]];portConstraint=eastwest;whiteSpace=wrap;html=1;" parent="P38OSJ2cjVZlPIJOjbsQ-1" vertex="1">
          <mxGeometry y="118" width="280" height="26" as="geometry" />
        </mxCell>
        <mxCell id="P38OSJ2cjVZlPIJOjbsQ-5" value="PublicGameRoom" style="swimlane;fontStyle=1;align=center;verticalAlign=top;childLayout=stackLayout;horizontal=1;startSize=26;horizontalStack=0;resizeParent=1;resizeParentMax=0;resizeLast=0;collapsible=1;marginBottom=0;whiteSpace=wrap;html=1;strokeWidth=3;" parent="1" vertex="1">
          <mxGeometry x="440" y="40" width="280" height="184" as="geometry" />
        </mxCell>
        <mxCell id="P38OSJ2cjVZlPIJOjbsQ-6" value="- gameRoomID: long&lt;br&gt;- hostUserID: long&lt;div&gt;- participants:&amp;nbsp;&lt;span style=&quot;background-color: initial;&quot;&gt;LinkedHashMap&lt;/span&gt;&lt;/div&gt;&lt;div&gt;&lt;span style=&quot;background-color: initial;&quot;&gt;&amp;nbsp; &amp;lt;[userID], GameRoomParticipant&amp;gt;&lt;/span&gt;&lt;div&gt;- maxPlayers: int = 50&lt;div&gt;- quizPool: ArrayList&amp;lt;long&amp;gt;&lt;br&gt;&lt;/div&gt;&lt;div&gt;&lt;br&gt;&lt;/div&gt;&lt;/div&gt;&lt;/div&gt;" style="text;strokeColor=none;fillColor=none;align=left;verticalAlign=top;spacingLeft=4;spacingRight=4;overflow=hidden;rotatable=0;points=[[0,0.5],[1,0.5]];portConstraint=eastwest;whiteSpace=wrap;html=1;" parent="P38OSJ2cjVZlPIJOjbsQ-5" vertex="1">
          <mxGeometry y="26" width="280" height="124" as="geometry" />
        </mxCell>
        <mxCell id="P38OSJ2cjVZlPIJOjbsQ-7" value="" style="line;strokeWidth=1;fillColor=none;align=left;verticalAlign=middle;spacingTop=-1;spacingLeft=3;spacingRight=3;rotatable=0;labelPosition=right;points=[];portConstraint=eastwest;strokeColor=inherit;" parent="P38OSJ2cjVZlPIJOjbsQ-5" vertex="1">
          <mxGeometry y="150" width="280" height="8" as="geometry" />
        </mxCell>
        <mxCell id="P38OSJ2cjVZlPIJOjbsQ-8" value="+ method(type): type" style="text;strokeColor=none;fillColor=none;align=left;verticalAlign=top;spacingLeft=4;spacingRight=4;overflow=hidden;rotatable=0;points=[[0,0.5],[1,0.5]];portConstraint=eastwest;whiteSpace=wrap;html=1;" parent="P38OSJ2cjVZlPIJOjbsQ-5" vertex="1">
          <mxGeometry y="158" width="280" height="26" as="geometry" />
        </mxCell>
        <mxCell id="P38OSJ2cjVZlPIJOjbsQ-9" value="" style="endArrow=diamondThin;endFill=0;endSize=24;html=1;rounded=0;exitX=1;exitY=0.5;exitDx=0;exitDy=0;entryX=0;entryY=0.5;entryDx=0;entryDy=0;edgeStyle=entityRelationEdgeStyle;elbow=vertical;" parent="1" source="P38OSJ2cjVZlPIJOjbsQ-2" target="P38OSJ2cjVZlPIJOjbsQ-6" edge="1">
          <mxGeometry width="160" relative="1" as="geometry">
            <mxPoint x="160" y="190" as="sourcePoint" />
            <mxPoint x="320" y="190" as="targetPoint" />
          </mxGeometry>
        </mxCell>
        <mxCell id="P38OSJ2cjVZlPIJOjbsQ-10" value="GameRoomParticipant" style="swimlane;fontStyle=1;align=center;verticalAlign=top;childLayout=stackLayout;horizontal=1;startSize=26;horizontalStack=0;resizeParent=1;resizeParentMax=0;resizeLast=0;collapsible=1;marginBottom=0;whiteSpace=wrap;html=1;strokeWidth=3;" parent="1" vertex="1">
          <mxGeometry x="840" y="40" width="280" height="174" as="geometry" />
        </mxCell>
        <mxCell id="P38OSJ2cjVZlPIJOjbsQ-11" value="- userID: long&lt;div&gt;- userName: String&lt;/div&gt;&lt;div&gt;- point: long = 0L&lt;/div&gt;&lt;div&gt;- answered: boolean&lt;/div&gt;&lt;div&gt;- answerTime: double&lt;/div&gt;&lt;div&gt;- answerContent: AnswerObj&lt;/div&gt;&lt;div&gt;(- history: ArrayList&amp;lt;&amp;gt;)&lt;/div&gt;&lt;div&gt;&lt;br&gt;&lt;/div&gt;" style="text;strokeColor=none;fillColor=none;align=left;verticalAlign=top;spacingLeft=4;spacingRight=4;overflow=hidden;rotatable=0;points=[[0,0.5],[1,0.5]];portConstraint=eastwest;whiteSpace=wrap;html=1;" parent="P38OSJ2cjVZlPIJOjbsQ-10" vertex="1">
          <mxGeometry y="26" width="280" height="114" as="geometry" />
        </mxCell>
        <mxCell id="P38OSJ2cjVZlPIJOjbsQ-12" value="" style="line;strokeWidth=1;fillColor=none;align=left;verticalAlign=middle;spacingTop=-1;spacingLeft=3;spacingRight=3;rotatable=0;labelPosition=right;points=[];portConstraint=eastwest;strokeColor=inherit;" parent="P38OSJ2cjVZlPIJOjbsQ-10" vertex="1">
          <mxGeometry y="140" width="280" height="8" as="geometry" />
        </mxCell>
        <mxCell id="P38OSJ2cjVZlPIJOjbsQ-13" value="+ method(type): type" style="text;strokeColor=none;fillColor=none;align=left;verticalAlign=top;spacingLeft=4;spacingRight=4;overflow=hidden;rotatable=0;points=[[0,0.5],[1,0.5]];portConstraint=eastwest;whiteSpace=wrap;html=1;" parent="P38OSJ2cjVZlPIJOjbsQ-10" vertex="1">
          <mxGeometry y="148" width="280" height="26" as="geometry" />
        </mxCell>
        <mxCell id="P38OSJ2cjVZlPIJOjbsQ-14" value="" style="endArrow=diamondThin;endFill=0;endSize=24;html=1;rounded=0;exitX=1;exitY=0.5;exitDx=0;exitDy=0;entryX=0;entryY=0.5;entryDx=0;entryDy=0;edgeStyle=entityRelationEdgeStyle;" parent="1" source="P38OSJ2cjVZlPIJOjbsQ-6" target="P38OSJ2cjVZlPIJOjbsQ-11" edge="1">
          <mxGeometry width="160" relative="1" as="geometry">
            <mxPoint x="721" y="114" as="sourcePoint" />
            <mxPoint x="840" y="110" as="targetPoint" />
          </mxGeometry>
        </mxCell>
        <mxCell id="mn5NOHn23sW6js578f2l-1" value="QuizImpl_4choices" style="swimlane;fontStyle=1;align=center;verticalAlign=top;childLayout=stackLayout;horizontal=1;startSize=26;horizontalStack=0;resizeParent=1;resizeParentMax=0;resizeLast=0;collapsible=1;marginBottom=0;whiteSpace=wrap;html=1;strokeWidth=3;" parent="1" vertex="1">
          <mxGeometry x="440" y="300" width="280" height="184" as="geometry" />
        </mxCell>
        <mxCell id="mn5NOHn23sW6js578f2l-2" value="- answer: int&lt;div&gt;- choices: String[4]&amp;nbsp;&lt;/div&gt;" style="text;strokeColor=none;fillColor=none;align=left;verticalAlign=top;spacingLeft=4;spacingRight=4;overflow=hidden;rotatable=0;points=[[0,0.5],[1,0.5]];portConstraint=eastwest;whiteSpace=wrap;html=1;" parent="mn5NOHn23sW6js578f2l-1" vertex="1">
          <mxGeometry y="26" width="280" height="124" as="geometry" />
        </mxCell>
        <mxCell id="mn5NOHn23sW6js578f2l-3" value="" style="line;strokeWidth=1;fillColor=none;align=left;verticalAlign=middle;spacingTop=-1;spacingLeft=3;spacingRight=3;rotatable=0;labelPosition=right;points=[];portConstraint=eastwest;strokeColor=inherit;" parent="mn5NOHn23sW6js578f2l-1" vertex="1">
          <mxGeometry y="150" width="280" height="8" as="geometry" />
        </mxCell>
        <mxCell id="mn5NOHn23sW6js578f2l-4" value="+ method(type): type" style="text;strokeColor=none;fillColor=none;align=left;verticalAlign=top;spacingLeft=4;spacingRight=4;overflow=hidden;rotatable=0;points=[[0,0.5],[1,0.5]];portConstraint=eastwest;whiteSpace=wrap;html=1;" parent="mn5NOHn23sW6js578f2l-1" vertex="1">
          <mxGeometry y="158" width="280" height="26" as="geometry" />
        </mxCell>
        <mxCell id="mn5NOHn23sW6js578f2l-5" value="&lt;div&gt;&lt;span style=&quot;font-weight: normal;&quot;&gt;{Abstract}&lt;/span&gt;&lt;/div&gt;Quiz" style="swimlane;fontStyle=1;align=center;verticalAlign=top;childLayout=stackLayout;horizontal=1;startSize=40;horizontalStack=0;resizeParent=1;resizeParentMax=0;resizeLast=0;collapsible=1;marginBottom=0;whiteSpace=wrap;html=1;strokeWidth=3;" parent="1" vertex="1">
          <mxGeometry x="440" y="560" width="280" height="198" as="geometry" />
        </mxCell>
        <mxCell id="mn5NOHn23sW6js578f2l-6" value="&lt;div&gt;# authorID: long&lt;br&gt;&lt;/div&gt;# title: String&lt;div&gt;# description: String&lt;/div&gt;&lt;div&gt;# timelimit: double&lt;/div&gt;&lt;div&gt;# point: long&lt;/div&gt;&lt;div&gt;&lt;br&gt;&lt;/div&gt;" style="text;strokeColor=none;fillColor=none;align=left;verticalAlign=top;spacingLeft=4;spacingRight=4;overflow=hidden;rotatable=0;points=[[0,0.5],[1,0.5]];portConstraint=eastwest;whiteSpace=wrap;html=1;strokeWidth=1;" parent="mn5NOHn23sW6js578f2l-5" vertex="1">
          <mxGeometry y="40" width="280" height="124" as="geometry" />
        </mxCell>
        <mxCell id="mn5NOHn23sW6js578f2l-7" value="" style="line;strokeWidth=1;fillColor=none;align=left;verticalAlign=middle;spacingTop=-1;spacingLeft=3;spacingRight=3;rotatable=0;labelPosition=right;points=[];portConstraint=eastwest;strokeColor=inherit;" parent="mn5NOHn23sW6js578f2l-5" vertex="1">
          <mxGeometry y="164" width="280" height="8" as="geometry" />
        </mxCell>
        <mxCell id="mn5NOHn23sW6js578f2l-8" value="+ method(type): type" style="text;strokeColor=none;fillColor=none;align=left;verticalAlign=top;spacingLeft=4;spacingRight=4;overflow=hidden;rotatable=0;points=[[0,0.5],[1,0.5]];portConstraint=eastwest;whiteSpace=wrap;html=1;" parent="mn5NOHn23sW6js578f2l-5" vertex="1">
          <mxGeometry y="172" width="280" height="26" as="geometry" />
        </mxCell>
        <mxCell id="mn5NOHn23sW6js578f2l-9" value="" style="endArrow=diamondThin;endFill=0;endSize=24;html=1;rounded=0;entryX=0.5;entryY=0;entryDx=0;entryDy=0;elbow=vertical;" parent="1" target="mn5NOHn23sW6js578f2l-1" edge="1">
          <mxGeometry width="160" relative="1" as="geometry">
            <mxPoint x="530" y="270" as="sourcePoint" />
            <mxPoint x="430" y="188" as="targetPoint" />
          </mxGeometry>
        </mxCell>
        <mxCell id="mn5NOHn23sW6js578f2l-10" value="Extends" style="endArrow=block;endSize=16;endFill=0;html=1;rounded=0;entryX=0.5;entryY=0;entryDx=0;entryDy=0;exitX=0.497;exitY=0.997;exitDx=0;exitDy=0;exitPerimeter=0;" parent="1" source="mn5NOHn23sW6js578f2l-4" target="mn5NOHn23sW6js578f2l-5" edge="1">
          <mxGeometry width="160" relative="1" as="geometry">
            <mxPoint x="580" y="500" as="sourcePoint" />
            <mxPoint x="660" y="420" as="targetPoint" />
          </mxGeometry>
        </mxCell>
        <mxCell id="Cd2iuIT0PsJbUTdYUt0L-1" value="&lt;h2 style=&quot;margin-top: 2px; margin-bottom: 4px;&quot;&gt;[特別定義型]&lt;/h2&gt;&lt;p style=&quot;margin-top: 2px; margin-bottom: 2px;&quot;&gt;[gameRoomID] :&amp;nbsp;&lt;span style=&quot;background-color: initial;&quot;&gt;long型，&lt;/span&gt;&lt;span style=&quot;background-color: initial;&quot;&gt;ゲームルームのID．&lt;/span&gt;&lt;/p&gt;&lt;p style=&quot;margin-top: 2px; margin-bottom: 2px;&quot;&gt;[userID] :&amp;nbsp;&lt;span style=&quot;background-color: initial;&quot;&gt;long型，&lt;/span&gt;&lt;span style=&quot;background-color: initial;&quot;&gt;ユーザ(ユーザアカウント)のID．&lt;/span&gt;&lt;/p&gt;&lt;p style=&quot;margin-top: 2px; margin-bottom: 2px;&quot;&gt;&lt;span style=&quot;background-color: initial;&quot;&gt;&lt;br&gt;&lt;/span&gt;&lt;/p&gt;&lt;h2 style=&quot;margin-top: 2px; margin-bottom: 4px;&quot;&gt;[アクセス修飾子]&lt;/h2&gt;&lt;p style=&quot;margin-top: 2px; margin-bottom: 2px;&quot;&gt;+ : public，# : protected，(なし) : なし，- : privat&lt;span style=&quot;background-color: initial;&quot;&gt;e，&lt;/span&gt;&lt;/p&gt;&lt;p style=&quot;margin-top: 2px; margin-bottom: 2px;&quot;&gt;&lt;span style=&quot;background-color: initial;&quot;&gt;? : 不明&lt;/span&gt;&lt;/p&gt;" style="text;html=1;whiteSpace=wrap;overflow=hidden;rounded=0;" parent="1" vertex="1">
          <mxGeometry x="40" y="200" width="320" height="160" as="geometry" />
        </mxCell>
        <mxCell id="Cd2iuIT0PsJbUTdYUt0L-2" value="&lt;div&gt;&lt;span style=&quot;font-weight: 400;&quot;&gt;&amp;lt;&amp;lt;Interface&amp;gt;&amp;gt;&lt;/span&gt;&lt;/div&gt;AnswerObj" style="swimlane;fontStyle=1;align=center;verticalAlign=top;childLayout=stackLayout;horizontal=1;startSize=40;horizontalStack=0;resizeParent=1;resizeParentMax=0;resizeLast=0;collapsible=1;marginBottom=0;whiteSpace=wrap;html=1;strokeWidth=3;" parent="1" vertex="1">
          <mxGeometry x="840" y="560" width="300" height="120" as="geometry" />
        </mxCell>
        <mxCell id="Cd2iuIT0PsJbUTdYUt0L-3" value="&lt;div&gt;&amp;nbsp;&lt;/div&gt;" style="text;strokeColor=none;fillColor=none;align=left;verticalAlign=top;spacingLeft=4;spacingRight=4;overflow=hidden;rotatable=0;points=[[0,0.5],[1,0.5]];portConstraint=eastwest;whiteSpace=wrap;html=1;" parent="Cd2iuIT0PsJbUTdYUt0L-2" vertex="1">
          <mxGeometry y="40" width="300" height="20" as="geometry" />
        </mxCell>
        <mxCell id="Cd2iuIT0PsJbUTdYUt0L-4" value="" style="line;strokeWidth=1;fillColor=none;align=left;verticalAlign=middle;spacingTop=-1;spacingLeft=3;spacingRight=3;rotatable=0;labelPosition=right;points=[];portConstraint=eastwest;strokeColor=inherit;" parent="Cd2iuIT0PsJbUTdYUt0L-2" vertex="1">
          <mxGeometry y="60" width="300" height="8" as="geometry" />
        </mxCell>
        <mxCell id="Cd2iuIT0PsJbUTdYUt0L-5" value="+ getAnsValue(): (このメソッドは明示的に宣言&lt;div&gt;&lt;span style=&quot;white-space: pre;&quot;&gt;&#x9;&lt;/span&gt;&lt;span style=&quot;white-space: pre;&quot;&gt;&#x9;&lt;/span&gt;&lt;span style=&quot;white-space: pre;&quot;&gt;&#x9;&lt;/span&gt;&amp;nbsp; &amp;nbsp; され&lt;span style=&quot;background-color: initial;&quot;&gt;ない．実装クラスにて新規&lt;/span&gt;&lt;/div&gt;&lt;div&gt;&lt;span style=&quot;background-color: initial;&quot;&gt;&lt;span style=&quot;white-space: pre;&quot;&gt;&#x9;&lt;/span&gt;&lt;span style=&quot;white-space: pre;&quot;&gt;&#x9;&lt;/span&gt;&lt;span style=&quot;white-space: pre;&quot;&gt;&#x9;&lt;/span&gt;&amp;nbsp; &amp;nbsp; に宣言&lt;/span&gt;&lt;span style=&quot;background-color: initial;&quot;&gt;定義されるべきメソッド．)&lt;/span&gt;&lt;/div&gt;" style="text;strokeColor=none;fillColor=none;align=left;verticalAlign=top;spacingLeft=4;spacingRight=4;overflow=hidden;rotatable=0;points=[[0,0.5],[1,0.5]];portConstraint=eastwest;whiteSpace=wrap;html=1;" parent="Cd2iuIT0PsJbUTdYUt0L-2" vertex="1">
          <mxGeometry y="68" width="300" height="52" as="geometry" />
        </mxCell>
        <mxCell id="Cd2iuIT0PsJbUTdYUt0L-6" value="&lt;div&gt;&lt;span style=&quot;background-color: initial;&quot;&gt;AnswerObjImpl_4choices&lt;/span&gt;&lt;br&gt;&lt;/div&gt;" style="swimlane;fontStyle=1;align=center;verticalAlign=top;childLayout=stackLayout;horizontal=1;startSize=26;horizontalStack=0;resizeParent=1;resizeParentMax=0;resizeLast=0;collapsible=1;marginBottom=0;whiteSpace=wrap;html=1;strokeWidth=3;" parent="1" vertex="1">
          <mxGeometry x="840" y="300" width="280" height="106" as="geometry" />
        </mxCell>
        <mxCell id="Cd2iuIT0PsJbUTdYUt0L-7" value="&lt;div&gt;- ansValue: int&lt;/div&gt;" style="text;strokeColor=none;fillColor=none;align=left;verticalAlign=top;spacingLeft=4;spacingRight=4;overflow=hidden;rotatable=0;points=[[0,0.5],[1,0.5]];portConstraint=eastwest;whiteSpace=wrap;html=1;" parent="Cd2iuIT0PsJbUTdYUt0L-6" vertex="1">
          <mxGeometry y="26" width="280" height="20" as="geometry" />
        </mxCell>
        <mxCell id="Cd2iuIT0PsJbUTdYUt0L-8" value="" style="line;strokeWidth=1;fillColor=none;align=left;verticalAlign=middle;spacingTop=-1;spacingLeft=3;spacingRight=3;rotatable=0;labelPosition=right;points=[];portConstraint=eastwest;strokeColor=inherit;" parent="Cd2iuIT0PsJbUTdYUt0L-6" vertex="1">
          <mxGeometry y="46" width="280" height="8" as="geometry" />
        </mxCell>
        <mxCell id="Cd2iuIT0PsJbUTdYUt0L-9" value="+ getAnsValue(): int" style="text;strokeColor=none;fillColor=none;align=left;verticalAlign=top;spacingLeft=4;spacingRight=4;overflow=hidden;rotatable=0;points=[[0,0.5],[1,0.5]];portConstraint=eastwest;whiteSpace=wrap;html=1;" parent="Cd2iuIT0PsJbUTdYUt0L-6" vertex="1">
          <mxGeometry y="54" width="280" height="52" as="geometry" />
        </mxCell>
        <mxCell id="Cd2iuIT0PsJbUTdYUt0L-11" value="" style="endArrow=block;dashed=1;endFill=0;endSize=12;html=1;rounded=0;entryX=0.5;entryY=0;entryDx=0;entryDy=0;exitX=0.504;exitY=0.997;exitDx=0;exitDy=0;exitPerimeter=0;edgeStyle=orthogonalEdgeStyle;" parent="1" source="Cd2iuIT0PsJbUTdYUt0L-9" target="Cd2iuIT0PsJbUTdYUt0L-2" edge="1">
          <mxGeometry width="160" relative="1" as="geometry">
            <mxPoint x="850" y="460" as="sourcePoint" />
            <mxPoint x="990" y="520" as="targetPoint" />
          </mxGeometry>
        </mxCell>
        <mxCell id="Cd2iuIT0PsJbUTdYUt0L-13" value="" style="endArrow=block;startArrow=block;endFill=1;startFill=1;html=1;rounded=0;exitX=1;exitY=0.5;exitDx=0;exitDy=0;entryX=0;entryY=0.5;entryDx=0;entryDy=0;" parent="1" source="mn5NOHn23sW6js578f2l-2" target="Cd2iuIT0PsJbUTdYUt0L-9" edge="1">
          <mxGeometry width="160" relative="1" as="geometry">
            <mxPoint x="850" y="280" as="sourcePoint" />
            <mxPoint x="1010" y="280" as="targetPoint" />
          </mxGeometry>
        </mxCell>
        <mxCell id="Cd2iuIT0PsJbUTdYUt0L-14" value="一式" style="edgeLabel;html=1;align=center;verticalAlign=middle;resizable=0;points=[];fontStyle=1" parent="Cd2iuIT0PsJbUTdYUt0L-13" vertex="1" connectable="0">
          <mxGeometry x="0.095" relative="1" as="geometry">
            <mxPoint y="-14" as="offset" />
          </mxGeometry>
        </mxCell>
        <mxCell id="Cd2iuIT0PsJbUTdYUt0L-15" value="" style="endArrow=none;html=1;rounded=0;entryX=0.5;entryY=0;entryDx=0;entryDy=0;" parent="1" target="Cd2iuIT0PsJbUTdYUt0L-6" edge="1">
          <mxGeometry relative="1" as="geometry">
            <mxPoint x="980" y="250" as="sourcePoint" />
            <mxPoint x="1030" y="259.64" as="targetPoint" />
          </mxGeometry>
        </mxCell>
        <mxCell id="Cd2iuIT0PsJbUTdYUt0L-16" value="&amp;nbsp;1" style="edgeLabel;resizable=0;html=1;align=left;verticalAlign=top;" parent="Cd2iuIT0PsJbUTdYUt0L-15" connectable="0" vertex="1">
          <mxGeometry x="-1" relative="1" as="geometry" />
        </mxCell>
        <mxCell id="Cd2iuIT0PsJbUTdYUt0L-17" value="&amp;nbsp;1" style="edgeLabel;resizable=0;html=1;align=left;verticalAlign=bottom;" parent="Cd2iuIT0PsJbUTdYUt0L-15" connectable="0" vertex="1">
          <mxGeometry x="1" relative="1" as="geometry" />
        </mxCell>
        <mxCell id="7esps-SJHjKMiU2ttyQK-4" style="rounded=0;orthogonalLoop=1;jettySize=auto;html=1;endArrow=none;endFill=0;" parent="1" source="7esps-SJHjKMiU2ttyQK-1" target="P38OSJ2cjVZlPIJOjbsQ-1" edge="1">
          <mxGeometry relative="1" as="geometry">
            <mxPoint x="180" y="10" as="targetPoint" />
          </mxGeometry>
        </mxCell>
        <mxCell id="7esps-SJHjKMiU2ttyQK-1" value="&lt;h3 style=&quot;margin-top: 2px; line-height: 110%; margin-bottom: 2px;&quot;&gt;&lt;font style=&quot;font-size: 18px; line-height: 110%;&quot;&gt;PGameRoomManagerクラス (DI)&lt;/font&gt;&lt;/h3&gt;&lt;h4 style=&quot;margin-top: 2px; margin-bottom: 2px; line-height: 110%;&quot;&gt;&lt;font style=&quot;font-size: 16px; line-height: 110%;&quot;&gt;&lt;/font&gt;&lt;/h4&gt;&lt;h4 style=&quot;margin-top: 2px; margin-bottom: 2px; line-height: 13.2px;&quot;&gt;&lt;font style=&quot;font-size: 16px; line-height: 110%;&quot;&gt;[概要/趣旨]&lt;/font&gt;&lt;/h4&gt;&lt;div style=&quot;margin-top: 2px; margin-bottom: 2px;&quot;&gt;&lt;font style=&quot;font-size: 16px; line-height: 17.6px;&quot;&gt;&lt;span style=&quot;font-size: 12px; line-height: 110%;&quot;&gt;　Java，DIで公開ゲームルームを扱うための管理DIクラス．サービスの公開ゲームルームすべてを一元的に管理し，そのアクセス権を提供する．&lt;/span&gt;&lt;/font&gt;&lt;/div&gt;&lt;div style=&quot;margin-top: 2px; margin-bottom: 2px;&quot;&gt;&lt;font style=&quot;font-size: 16px; line-height: 17.6px;&quot;&gt;&lt;span style=&quot;font-size: 12px; line-height: 110%;&quot;&gt;&lt;br&gt;&lt;/span&gt;&lt;/font&gt;&lt;/div&gt;&lt;h4 style=&quot;margin-top: 2px; margin-bottom: 2px; line-height: 110%;&quot;&gt;&lt;font style=&quot;font-size: 16px; line-height: 110%;&quot;&gt;[フィールドの説明]&lt;/font&gt;&lt;/h4&gt;&lt;p style=&quot;line-height: 110%; margin-top: 2px; margin-bottom: 2px;&quot;&gt;&lt;b&gt;publicGameRooms:&amp;nbsp;&lt;/b&gt;&lt;/p&gt;&lt;p style=&quot;margin-top: 2px; margin-bottom: 2px; line-height: 110%; margin-right: 0px;&quot;&gt;　公開ゲームルームを格納する連想配列．KeyはゲームルームのID(DB: gameRoom.ID)，Valueは単一の公開ゲームルームインスタンス(PublicGameRoomクラス)．&lt;/p&gt;&lt;p style=&quot;margin-top: 2px; margin-bottom: 2px; line-height: 110%; margin-right: 0px;&quot;&gt;&lt;b&gt;belonging:&amp;nbsp;&lt;/b&gt;&lt;/p&gt;&lt;p style=&quot;margin-top: 2px; margin-bottom: 2px; line-height: 110%; margin-right: 0px;&quot;&gt;　プレイヤー(ユーザ)がどの公開ゲームルームに属しているかを表す連想配列．Keyはユーザ(アカウント)のID(DB: userAccount.ID)，ValueはゲームルームのID(DB: gameRoom.ID)．&lt;/p&gt;&lt;p style=&quot;margin-top: 2px; margin-bottom: 2px; line-height: 110%; margin-right: 0px;&quot;&gt;&lt;b&gt;maxRoomNum:&amp;nbsp;&lt;/b&gt;&lt;br&gt;&lt;/p&gt;&lt;p style=&quot;margin-top: 2px; margin-bottom: 2px; line-height: 110%; margin-right: 0px;&quot;&gt;　管理する公開ゲームルームの最大数を表すint型．100部屋を固定値とする想定．&lt;/p&gt;&lt;p style=&quot;margin-top: 2px; margin-bottom: 2px; line-height: 110%; margin-right: 0px;&quot;&gt;&lt;br&gt;&lt;/p&gt;&lt;h4 style=&quot;margin-top: 2px; margin-bottom: 2px; line-height: 13.2px;&quot;&gt;&lt;font style=&quot;font-size: 16px; line-height: 17.6px;&quot;&gt;[メソッドの説明]&lt;/font&gt;&lt;/h4&gt;&lt;p style=&quot;line-height: 13.2px; margin-top: 2px; margin-bottom: 2px;&quot;&gt;:&amp;nbsp;&lt;/p&gt;" style="shape=note;whiteSpace=wrap;html=1;backgroundOutline=1;darkOpacity=0.05;fillStyle=solid;direction=west;gradientDirection=north;shadow=1;size=20;pointerEvents=1;align=left;verticalAlign=top;" parent="1" vertex="1">
          <mxGeometry y="-440" width="360" height="400" as="geometry" />
        </mxCell>
        <mxCell id="7esps-SJHjKMiU2ttyQK-5" style="rounded=0;orthogonalLoop=1;jettySize=auto;html=1;endArrow=none;endFill=0;" parent="1" source="7esps-SJHjKMiU2ttyQK-6" target="P38OSJ2cjVZlPIJOjbsQ-5" edge="1">
          <mxGeometry relative="1" as="geometry">
            <mxPoint x="580" y="40" as="targetPoint" />
          </mxGeometry>
        </mxCell>
        <mxCell id="7esps-SJHjKMiU2ttyQK-6" value="&lt;h3 style=&quot;margin-top: 2px; line-height: 110%; margin-bottom: 2px;&quot;&gt;&lt;font style=&quot;font-size: 18px; line-height: 110%;&quot;&gt;PublicGameRoomクラス&lt;/font&gt;&lt;/h3&gt;&lt;h4 style=&quot;margin-top: 2px; margin-bottom: 2px; line-height: 110%;&quot;&gt;&lt;font style=&quot;font-size: 16px; line-height: 110%;&quot;&gt;&lt;/font&gt;&lt;/h4&gt;&lt;h4 style=&quot;margin-top: 2px; margin-bottom: 2px; line-height: 13.2px;&quot;&gt;&lt;font style=&quot;font-size: 16px; line-height: 110%;&quot;&gt;[概要/趣旨]&lt;/font&gt;&lt;/h4&gt;&lt;div style=&quot;margin-top: 2px; margin-bottom: 2px;&quot;&gt;&lt;font style=&quot;font-size: 16px; line-height: 17.6px;&quot;&gt;&lt;span style=&quot;font-size: 12px; line-height: 110%;&quot;&gt;　単一の公開ゲームルームを成すクラス．ゲームの進行はこのクラスのインスタンスの直接操作またはこれのメソッドで行うことを想定．&lt;/span&gt;&lt;/font&gt;&lt;/div&gt;&lt;div style=&quot;margin-top: 2px; margin-bottom: 2px;&quot;&gt;&lt;font style=&quot;font-size: 16px; line-height: 17.6px;&quot;&gt;&lt;span style=&quot;font-size: 12px; line-height: 110%;&quot;&gt;&lt;br&gt;&lt;/span&gt;&lt;/font&gt;&lt;/div&gt;&lt;h4 style=&quot;margin-top: 2px; margin-bottom: 2px; line-height: 110%;&quot;&gt;&lt;font style=&quot;font-size: 16px; line-height: 110%;&quot;&gt;[フィールドの説明]&lt;/font&gt;&lt;/h4&gt;&lt;p style=&quot;line-height: 110%; margin-top: 2px; margin-bottom: 2px;&quot;&gt;&lt;b&gt;gameRoomID:&amp;nbsp;&lt;/b&gt;&lt;/p&gt;&lt;p style=&quot;line-height: 110%; margin-top: 2px; margin-bottom: 2px;&quot;&gt;　ゲームルームのIDを格納するlong型(DB: gameRoom.ID)．&lt;/p&gt;&lt;p style=&quot;line-height: 110%; margin-top: 2px; margin-bottom: 2px;&quot;&gt;&lt;b&gt;hostUserID:&amp;nbsp;&lt;/b&gt;&lt;/p&gt;&lt;p style=&quot;line-height: 110%; margin-top: 2px; margin-bottom: 2px;&quot;&gt;　公開ゲームルームの主催者(ホスト)であるユーザ(アカウント)のIDを格納する&lt;span style=&quot;background-color: initial;&quot;&gt;long型(DB: userAccount.ID | gameRoom.hostUserID)．&lt;/span&gt;&lt;/p&gt;&lt;p style=&quot;margin-top: 2px; margin-bottom: 2px; line-height: 110%; margin-right: 0px;&quot;&gt;&lt;b&gt;participants:&amp;nbsp;&lt;/b&gt;&lt;/p&gt;&lt;p style=&quot;margin-top: 2px; margin-bottom: 2px; line-height: 110%; margin-right: 0px;&quot;&gt;　公開ゲームルーム上のそれぞれの参加者の情報(GameRoomParticipantクラス)を格納する連想配列．Keyは&lt;span style=&quot;background-color: initial;&quot;&gt;ユーザ(アカウント)のID(DB: userAccount.ID)，Valueは単一のゲームルーム参加者インスタンス(GameRoomParticipantクラス)．&lt;/span&gt;&lt;/p&gt;&lt;p style=&quot;margin-top: 2px; margin-bottom: 2px; line-height: 110%; margin-right: 0px;&quot;&gt;&lt;b&gt;maxPlayers:&amp;nbsp;&lt;/b&gt;&lt;br&gt;&lt;/p&gt;&lt;p style=&quot;margin-top: 2px; margin-bottom: 2px; line-height: 110%; margin-right: 0px;&quot;&gt;　公開ゲームルームの最大参加人数を表すint型．デフォルト値は50人．&lt;/p&gt;&lt;p style=&quot;margin-top: 2px; margin-bottom: 2px; line-height: 13.2px; margin-right: 0px;&quot;&gt;&lt;b&gt;quizPool:&amp;nbsp;&lt;/b&gt;&lt;/p&gt;&lt;p style=&quot;margin-top: 2px; margin-bottom: 2px; line-height: 110%; margin-right: 0px;&quot;&gt;　公開ゲームルームの問題のプールを成す動的配列(ArrayList)．格納するデータ型は，単一の問題のIDを表すlong型．&lt;/p&gt;&lt;p style=&quot;margin-top: 2px; margin-bottom: 2px; line-height: 110%; margin-right: 0px;&quot;&gt;&lt;br&gt;&lt;/p&gt;&lt;p style=&quot;margin-top: 2px; margin-bottom: 2px; line-height: 110%; margin-right: 0px;&quot;&gt;&lt;br&gt;&lt;/p&gt;&lt;h4 style=&quot;margin-top: 2px; margin-bottom: 2px; line-height: 13.2px;&quot;&gt;&lt;font style=&quot;font-size: 16px; line-height: 17.6px;&quot;&gt;[メソッドの説明]&lt;/font&gt;&lt;/h4&gt;&lt;p style=&quot;line-height: 13.2px; margin-top: 2px; margin-bottom: 2px;&quot;&gt;:&amp;nbsp;&lt;/p&gt;" style="shape=note;whiteSpace=wrap;html=1;backgroundOutline=1;darkOpacity=0.05;fillStyle=solid;direction=west;gradientDirection=north;shadow=1;size=20;pointerEvents=1;align=left;verticalAlign=top;" parent="1" vertex="1">
          <mxGeometry x="400" y="-600" width="360" height="560" as="geometry" />
        </mxCell>
        <mxCell id="7esps-SJHjKMiU2ttyQK-7" style="rounded=0;orthogonalLoop=1;jettySize=auto;html=1;endArrow=none;endFill=0;" parent="1" source="7esps-SJHjKMiU2ttyQK-8" target="P38OSJ2cjVZlPIJOjbsQ-10" edge="1">
          <mxGeometry relative="1" as="geometry">
            <mxPoint x="980" y="40" as="targetPoint" />
          </mxGeometry>
        </mxCell>
        <mxCell id="7esps-SJHjKMiU2ttyQK-8" value="&lt;h3 style=&quot;margin-top: 2px; line-height: 110%; margin-bottom: 2px;&quot;&gt;&lt;font style=&quot;font-size: 18px; line-height: 110%;&quot;&gt;GameRoomParticipantクラス&lt;/font&gt;&lt;/h3&gt;&lt;h4 style=&quot;margin-top: 2px; margin-bottom: 2px; line-height: 110%;&quot;&gt;&lt;font style=&quot;font-size: 16px; line-height: 110%;&quot;&gt;&lt;/font&gt;&lt;/h4&gt;&lt;h4 style=&quot;margin-top: 2px; margin-bottom: 2px; line-height: 13.2px;&quot;&gt;&lt;font style=&quot;font-size: 16px; line-height: 110%;&quot;&gt;[概要/趣旨]&lt;/font&gt;&lt;/h4&gt;&lt;div style=&quot;margin-top: 2px; margin-bottom: 2px;&quot;&gt;&lt;font style=&quot;font-size: 16px; line-height: 17.6px;&quot;&gt;&lt;span style=&quot;font-size: 12px; line-height: 110%;&quot;&gt;　単一のゲームルームの参加者を成すクラス．参加者の基本的な情報を扱うとともに，参加者ごとのゲームプレイ上のデータも扱う．&lt;/span&gt;&lt;/font&gt;&lt;/div&gt;&lt;div style=&quot;margin-top: 2px; margin-bottom: 2px;&quot;&gt;&lt;font style=&quot;font-size: 16px; line-height: 17.6px;&quot;&gt;&lt;span style=&quot;font-size: 12px; line-height: 110%;&quot;&gt;&lt;br&gt;&lt;/span&gt;&lt;/font&gt;&lt;/div&gt;&lt;h4 style=&quot;margin-top: 2px; margin-bottom: 2px; line-height: 110%;&quot;&gt;&lt;font style=&quot;font-size: 16px; line-height: 110%;&quot;&gt;[フィールドの説明]&lt;/font&gt;&lt;/h4&gt;&lt;p style=&quot;line-height: 110%; margin-top: 2px; margin-bottom: 2px;&quot;&gt;&lt;b&gt;userID:&amp;nbsp;&lt;/b&gt;&lt;/p&gt;&lt;p style=&quot;margin-top: 2px; margin-bottom: 2px; line-height: 110%; margin-right: 0px;&quot;&gt;　参加者のユーザIDを格納するlong型(DB: userAccount.ID)．&lt;/p&gt;&lt;p style=&quot;line-height: 13.2px; margin-top: 2px; margin-bottom: 2px;&quot;&gt;&lt;b&gt;userName:&amp;nbsp;&lt;/b&gt;&lt;/p&gt;&lt;p style=&quot;margin-top: 2px; margin-bottom: 2px; line-height: 110%; margin-right: 0px;&quot;&gt;　参加者の名前を格納する文字列型(DB: userAccount.userName)．&lt;/p&gt;&lt;p style=&quot;line-height: 13.2px; margin-top: 2px; margin-bottom: 2px;&quot;&gt;&lt;b&gt;point:&amp;nbsp;&lt;/b&gt;&lt;/p&gt;&lt;p style=&quot;margin-top: 2px; margin-bottom: 2px; line-height: 110%; margin-right: 0px;&quot;&gt;　参加者の持ち点数を表すlong型．&lt;/p&gt;&lt;p style=&quot;line-height: 13.2px; margin-top: 2px; margin-bottom: 2px;&quot;&gt;&lt;b&gt;answered:&amp;nbsp;&lt;/b&gt;&lt;/p&gt;&lt;p style=&quot;margin-top: 2px; margin-bottom: 2px; line-height: 110%; margin-right: 0px;&quot;&gt;　参加者が問題を解答済みであるかを表すboolean型．&lt;/p&gt;&lt;p style=&quot;line-height: 13.2px; margin-top: 2px; margin-bottom: 2px;&quot;&gt;&lt;b&gt;answerTime:&amp;nbsp;&lt;/b&gt;&lt;/p&gt;&lt;p style=&quot;margin-top: 2px; margin-bottom: 2px; line-height: 110%; margin-right: 0px;&quot;&gt;　問題解答開始から何秒経過して解答したかを表すdouble型．&lt;/p&gt;&lt;p style=&quot;line-height: 13.2px; margin-top: 2px; margin-bottom: 2px;&quot;&gt;&lt;b&gt;answerContent:&amp;nbsp;&lt;/b&gt;&lt;/p&gt;&lt;p style=&quot;margin-top: 2px; margin-bottom: 2px; line-height: 110%; margin-right: 0px;&quot;&gt;　解答内容を表すAnswerObjクラスを格納するフィールド．&lt;/p&gt;&lt;p style=&quot;line-height: 13.2px; margin-top: 2px; margin-bottom: 2px;&quot;&gt;&lt;b&gt;history: (検討中フィールド)&lt;/b&gt;&lt;/p&gt;&lt;p style=&quot;margin-top: 2px; margin-bottom: 2px; line-height: 13.2px; margin-right: 0px;&quot;&gt;　ゲーム中に行ったアクションの履歴を格納するフィールド．&lt;/p&gt;&lt;p style=&quot;margin-top: 2px; margin-bottom: 2px; line-height: 13.2px; margin-right: 0px;&quot;&gt;&lt;br&gt;&lt;/p&gt;&lt;p style=&quot;margin-top: 2px; margin-bottom: 2px; line-height: 110%; margin-right: 0px;&quot;&gt;&lt;br&gt;&lt;/p&gt;&lt;h4 style=&quot;margin-top: 2px; margin-bottom: 2px; line-height: 13.2px;&quot;&gt;&lt;font style=&quot;font-size: 16px; line-height: 17.6px;&quot;&gt;[メソッドの説明]&lt;/font&gt;&lt;/h4&gt;&lt;p style=&quot;line-height: 13.2px; margin-top: 2px; margin-bottom: 2px;&quot;&gt;:&amp;nbsp;&lt;/p&gt;" style="shape=note;whiteSpace=wrap;html=1;backgroundOutline=1;darkOpacity=0.05;fillStyle=solid;direction=west;gradientDirection=north;shadow=1;size=20;pointerEvents=1;align=left;verticalAlign=top;" parent="1" vertex="1">
          <mxGeometry x="800" y="-520" width="360" height="480" as="geometry" />
        </mxCell>
        <mxCell id="7esps-SJHjKMiU2ttyQK-9" style="rounded=0;orthogonalLoop=1;jettySize=auto;html=1;endArrow=none;endFill=0;" parent="1" source="7esps-SJHjKMiU2ttyQK-10" target="mn5NOHn23sW6js578f2l-5" edge="1">
          <mxGeometry relative="1" as="geometry">
            <mxPoint x="580" y="1320" as="targetPoint" />
          </mxGeometry>
        </mxCell>
        <mxCell id="7esps-SJHjKMiU2ttyQK-10" value="&lt;h3 style=&quot;margin-top: 2px; line-height: 110%; margin-bottom: 2px;&quot;&gt;&lt;font style=&quot;font-size: 18px; line-height: 110%;&quot;&gt;Quiz抽象クラス {Abstract}&lt;/font&gt;&lt;/h3&gt;&lt;h4 style=&quot;margin-top: 2px; margin-bottom: 2px; line-height: 110%;&quot;&gt;&lt;font style=&quot;font-size: 16px; line-height: 110%;&quot;&gt;&lt;/font&gt;&lt;/h4&gt;&lt;h4 style=&quot;margin-top: 2px; margin-bottom: 2px; line-height: 13.2px;&quot;&gt;&lt;font style=&quot;font-size: 16px; line-height: 110%;&quot;&gt;[概要/趣旨]&lt;/font&gt;&lt;/h4&gt;&lt;div style=&quot;margin-top: 2px; margin-bottom: 2px;&quot;&gt;&lt;font style=&quot;font-size: 16px; line-height: 17.6px;&quot;&gt;&lt;span style=&quot;font-size: 12px; line-height: 110%;&quot;&gt;　単一の問題の基本情報を格納する抽象クラス．問題はその問題(出題)形式で形態が変わるものとして扱うため，必ず継承される抽象クラスとして定義．&lt;/span&gt;&lt;/font&gt;&lt;/div&gt;&lt;div style=&quot;margin-top: 2px; margin-bottom: 2px;&quot;&gt;&lt;font style=&quot;font-size: 16px; line-height: 17.6px;&quot;&gt;&lt;span style=&quot;font-size: 12px; line-height: 110%;&quot;&gt;&lt;br&gt;&lt;/span&gt;&lt;/font&gt;&lt;/div&gt;&lt;h4 style=&quot;margin-top: 2px; margin-bottom: 2px; line-height: 110%;&quot;&gt;&lt;font style=&quot;font-size: 16px; line-height: 110%;&quot;&gt;[フィールドの説明]&lt;/font&gt;&lt;/h4&gt;&lt;p style=&quot;line-height: 110%; margin-top: 2px; margin-bottom: 2px;&quot;&gt;&lt;b&gt;authorID:&amp;nbsp;&lt;/b&gt;&lt;/p&gt;&lt;p style=&quot;margin-top: 2px; margin-bottom: 2px; line-height: 110%; margin-right: 0px;&quot;&gt;　問題の作成者を指すユーザIDを格納するlong型(DB: quizTable.authorID)．&lt;/p&gt;&lt;p style=&quot;line-height: 13.2px; margin-top: 2px; margin-bottom: 2px;&quot;&gt;&lt;b&gt;title:&amp;nbsp;&lt;/b&gt;&lt;/p&gt;&lt;p style=&quot;margin-top: 2px; margin-bottom: 2px; line-height: 13.2px; margin-right: 0px;&quot;&gt;　問題のタイトルを格納する文字列型(DB: quizTable.title)．&lt;/p&gt;&lt;p style=&quot;line-height: 13.2px; margin-top: 2px; margin-bottom: 2px;&quot;&gt;&lt;b&gt;description:&amp;nbsp;&lt;/b&gt;&lt;/p&gt;&lt;p style=&quot;margin-top: 2px; margin-bottom: 2px; line-height: 13.2px; margin-right: 0px;&quot;&gt;　問題文を格納する文字列型(DB: quizTable.description)．&lt;/p&gt;&lt;p style=&quot;line-height: 13.2px; margin-top: 2px; margin-bottom: 2px;&quot;&gt;&lt;b&gt;timelimit:&amp;nbsp;&lt;/b&gt;&lt;/p&gt;&lt;p style=&quot;margin-top: 2px; margin-bottom: 2px; line-height: 13.2px; margin-right: 0px;&quot;&gt;　問題が規定する制限時間を格納するdouble型(DB: quizTable.timelimit)．&lt;/p&gt;&lt;p style=&quot;line-height: 13.2px; margin-top: 2px; margin-bottom: 2px;&quot;&gt;&lt;b&gt;point:&amp;nbsp;&lt;/b&gt;&lt;/p&gt;&lt;p style=&quot;margin-top: 2px; margin-bottom: 2px; line-height: 13.2px; margin-right: 0px;&quot;&gt;　問題の獲得素点を格納するlong型(DB: quizTable.point)．&lt;/p&gt;&lt;p style=&quot;margin-top: 2px; margin-bottom: 2px; line-height: 13.2px; margin-right: 0px;&quot;&gt;&lt;br&gt;&lt;/p&gt;&lt;p style=&quot;margin-top: 2px; margin-bottom: 2px; line-height: 13.2px; margin-right: 0px;&quot;&gt;&lt;br&gt;&lt;/p&gt;&lt;h4 style=&quot;margin-top: 2px; margin-bottom: 2px; line-height: 13.2px;&quot;&gt;&lt;font style=&quot;font-size: 16px; line-height: 17.6px;&quot;&gt;[メソッドの説明]&lt;/font&gt;&lt;/h4&gt;&lt;p style=&quot;line-height: 13.2px; margin-top: 2px; margin-bottom: 2px;&quot;&gt;:&amp;nbsp;&lt;/p&gt;" style="shape=note;whiteSpace=wrap;html=1;backgroundOutline=1;darkOpacity=0.05;fillStyle=solid;direction=west;gradientDirection=north;shadow=1;size=20;pointerEvents=1;align=left;verticalAlign=top;" parent="1" vertex="1">
          <mxGeometry x="400" y="840" width="360" height="400" as="geometry" />
        </mxCell>
        <mxCell id="7esps-SJHjKMiU2ttyQK-11" style="rounded=0;orthogonalLoop=1;jettySize=auto;html=1;endArrow=none;endFill=0;" parent="1" source="7esps-SJHjKMiU2ttyQK-12" target="mn5NOHn23sW6js578f2l-1" edge="1">
          <mxGeometry relative="1" as="geometry">
            <mxPoint x="140" y="300" as="targetPoint" />
          </mxGeometry>
        </mxCell>
        <mxCell id="7esps-SJHjKMiU2ttyQK-12" value="&lt;h3 style=&quot;margin-top: 2px; line-height: 110%; margin-bottom: 2px;&quot;&gt;&lt;font style=&quot;font-size: 18px; line-height: 110%;&quot;&gt;QuizImpl_4choices継承クラス&lt;/font&gt;&lt;/h3&gt;&lt;h4 style=&quot;margin-top: 2px; margin-bottom: 2px; line-height: 110%;&quot;&gt;&lt;font style=&quot;font-size: 16px; line-height: 110%;&quot;&gt;&lt;/font&gt;&lt;/h4&gt;&lt;h4 style=&quot;margin-top: 2px; margin-bottom: 2px; line-height: 13.2px;&quot;&gt;&lt;font style=&quot;font-size: 16px; line-height: 110%;&quot;&gt;[概要/趣旨]&lt;/font&gt;&lt;/h4&gt;&lt;div style=&quot;margin-top: 2px; margin-bottom: 2px;&quot;&gt;&lt;font style=&quot;font-size: 16px; line-height: 17.6px;&quot;&gt;&lt;span style=&quot;font-size: 12px; line-height: 110%;&quot;&gt;　4択クイズに特化した，Quizクラスの継承クラス．&lt;/span&gt;&lt;/font&gt;&lt;/div&gt;&lt;div style=&quot;margin-top: 2px; margin-bottom: 2px;&quot;&gt;&lt;font style=&quot;font-size: 16px; line-height: 17.6px;&quot;&gt;&lt;span style=&quot;font-size: 12px; line-height: 110%;&quot;&gt;&lt;br&gt;&lt;/span&gt;&lt;/font&gt;&lt;/div&gt;&lt;h4 style=&quot;margin-top: 2px; margin-bottom: 2px; line-height: 110%;&quot;&gt;&lt;font style=&quot;font-size: 16px; line-height: 110%;&quot;&gt;[フィールドの説明]&lt;/font&gt;&lt;/h4&gt;&lt;p style=&quot;line-height: 110%; margin-top: 2px; margin-bottom: 2px;&quot;&gt;&lt;b&gt;answer:&amp;nbsp;&lt;/b&gt;&lt;/p&gt;&lt;p style=&quot;margin-top: 2px; margin-bottom: 2px; line-height: 13.2px; margin-right: 0px;&quot;&gt;　4択クイズの正解選択肢の番号を格納するint型．有効値は(1-indexed)1~4．&lt;/p&gt;&lt;p style=&quot;line-height: 13.2px; margin-top: 2px; margin-bottom: 2px;&quot;&gt;&lt;b&gt;choices:&amp;nbsp;&lt;/b&gt;&lt;/p&gt;&lt;p style=&quot;margin-top: 2px; margin-bottom: 2px; line-height: 13.2px; margin-right: 0px;&quot;&gt;　4択クイズの選択肢の文字列を格納する文字列型配列．長さ4．&lt;/p&gt;&lt;p style=&quot;margin-top: 2px; margin-bottom: 2px; line-height: 13.2px; margin-right: 0px;&quot;&gt;&lt;br&gt;&lt;/p&gt;&lt;h4 style=&quot;margin-top: 2px; margin-bottom: 2px; line-height: 13.2px;&quot;&gt;&lt;font style=&quot;font-size: 16px; line-height: 17.6px;&quot;&gt;[メソッドの説明]&lt;/font&gt;&lt;/h4&gt;&lt;p style=&quot;line-height: 13.2px; margin-top: 2px; margin-bottom: 2px;&quot;&gt;:&amp;nbsp;&lt;/p&gt;" style="shape=note;whiteSpace=wrap;html=1;backgroundOutline=1;darkOpacity=0.05;fillStyle=solid;direction=west;gradientDirection=north;shadow=1;size=20;pointerEvents=1;align=left;verticalAlign=top;" parent="1" vertex="1">
          <mxGeometry x="-40" y="382" width="360" height="318" as="geometry" />
        </mxCell>
        <mxCell id="7esps-SJHjKMiU2ttyQK-13" style="rounded=0;orthogonalLoop=1;jettySize=auto;html=1;endArrow=none;endFill=0;" parent="1" source="7esps-SJHjKMiU2ttyQK-14" target="Cd2iuIT0PsJbUTdYUt0L-2" edge="1">
          <mxGeometry relative="1" as="geometry">
            <mxPoint x="991.7543859649127" y="700.0000000000005" as="targetPoint" />
          </mxGeometry>
        </mxCell>
        <mxCell id="7esps-SJHjKMiU2ttyQK-14" value="&lt;h3 style=&quot;margin-top: 2px; line-height: 110%; margin-bottom: 2px;&quot;&gt;&lt;font style=&quot;font-size: 18px; line-height: 110%;&quot;&gt;AnswerObjインターフェース &amp;lt;&amp;lt;Interface&amp;gt;&amp;gt;&lt;/font&gt;&lt;/h3&gt;&lt;h4 style=&quot;margin-top: 2px; margin-bottom: 2px; line-height: 110%;&quot;&gt;&lt;font style=&quot;font-size: 16px; line-height: 110%;&quot;&gt;&lt;/font&gt;&lt;/h4&gt;&lt;h4 style=&quot;margin-top: 2px; margin-bottom: 2px; line-height: 13.2px;&quot;&gt;&lt;font style=&quot;font-size: 16px; line-height: 110%;&quot;&gt;[概要/趣旨]&lt;/font&gt;&lt;/h4&gt;&lt;div style=&quot;margin-top: 2px; margin-bottom: 2px;&quot;&gt;&lt;font style=&quot;font-size: 16px; line-height: 17.6px;&quot;&gt;&lt;span style=&quot;font-size: 12px; line-height: 110%;&quot;&gt;　&lt;/span&gt;&lt;/font&gt;&lt;/div&gt;&lt;p style=&quot;margin-top: 2px; margin-bottom: 2px; line-height: 13.2px; margin-right: 0px;&quot;&gt;&lt;br&gt;&lt;/p&gt;&lt;h4 style=&quot;margin-top: 2px; margin-bottom: 2px; line-height: 13.2px;&quot;&gt;&lt;font style=&quot;font-size: 16px; line-height: 17.6px;&quot;&gt;[メソッドの説明]&lt;/font&gt;&lt;/h4&gt;&lt;p style=&quot;line-height: 13.2px; margin-top: 2px; margin-bottom: 2px;&quot;&gt;&lt;b&gt;getAnsValue():&amp;nbsp;&lt;/b&gt;&lt;/p&gt;&lt;p style=&quot;line-height: 13.2px; margin-top: 2px; margin-bottom: 2px;&quot;&gt;　&lt;b&gt;※&lt;/b&gt;&lt;/p&gt;&lt;p style=&quot;line-height: 13.2px; margin-top: 2px; margin-bottom: 2px;&quot;&gt;&lt;b&gt;&lt;br&gt;&lt;/b&gt;&lt;/p&gt;&lt;p style=&quot;line-height: 13.2px; margin-top: 2px; margin-bottom: 2px;&quot;&gt;&lt;b&gt;&lt;br&gt;&lt;/b&gt;&lt;/p&gt;" style="shape=note;whiteSpace=wrap;html=1;backgroundOutline=1;darkOpacity=0.05;fillStyle=solid;direction=west;gradientDirection=north;shadow=1;size=20;pointerEvents=1;align=left;verticalAlign=top;" parent="1" vertex="1">
          <mxGeometry x="800" y="758" width="380" height="400" as="geometry" />
        </mxCell>
        <mxCell id="7esps-SJHjKMiU2ttyQK-21" value="&lt;div&gt;&lt;span style=&quot;font-weight: 400;&quot;&gt;&amp;lt;&amp;lt;Interface&amp;gt;&amp;gt;&lt;/span&gt;&lt;/div&gt;AnswerObj" style="swimlane;fontStyle=1;align=center;verticalAlign=top;childLayout=stackLayout;horizontal=1;startSize=40;horizontalStack=0;resizeParent=1;resizeParentMax=0;resizeLast=0;collapsible=1;marginBottom=0;whiteSpace=wrap;html=1;fillColor=#dae8fc;strokeColor=#6c8ebf;strokeWidth=3;" parent="1" vertex="1">
          <mxGeometry x="1260" y="560" width="300" height="120" as="geometry" />
        </mxCell>
        <mxCell id="7esps-SJHjKMiU2ttyQK-22" value="&lt;div&gt;&amp;nbsp;&lt;/div&gt;" style="text;strokeColor=none;fillColor=none;align=left;verticalAlign=top;spacingLeft=4;spacingRight=4;overflow=hidden;rotatable=0;points=[[0,0.5],[1,0.5]];portConstraint=eastwest;whiteSpace=wrap;html=1;" parent="7esps-SJHjKMiU2ttyQK-21" vertex="1">
          <mxGeometry y="40" width="300" height="20" as="geometry" />
        </mxCell>
        <mxCell id="7esps-SJHjKMiU2ttyQK-23" value="" style="line;strokeWidth=1;fillColor=none;align=left;verticalAlign=middle;spacingTop=-1;spacingLeft=3;spacingRight=3;rotatable=0;labelPosition=right;points=[];portConstraint=eastwest;strokeColor=inherit;" parent="7esps-SJHjKMiU2ttyQK-21" vertex="1">
          <mxGeometry y="60" width="300" height="8" as="geometry" />
        </mxCell>
        <mxCell id="7esps-SJHjKMiU2ttyQK-24" value="+ getAnsValue(): Object" style="text;strokeColor=none;fillColor=none;align=left;verticalAlign=top;spacingLeft=4;spacingRight=4;overflow=hidden;rotatable=0;points=[[0,0.5],[1,0.5]];portConstraint=eastwest;whiteSpace=wrap;html=1;" parent="7esps-SJHjKMiU2ttyQK-21" vertex="1">
          <mxGeometry y="68" width="300" height="52" as="geometry" />
        </mxCell>
        <mxCell id="7esps-SJHjKMiU2ttyQK-25" value="" style="endArrow=block;dashed=1;endFill=0;endSize=12;html=1;rounded=0;entryX=0.5;entryY=0;entryDx=0;entryDy=0;edgeStyle=orthogonalEdgeStyle;exitX=0.499;exitY=1.003;exitDx=0;exitDy=0;exitPerimeter=0;fillColor=#dae8fc;strokeColor=#6c8ebf;" parent="1" source="7esps-SJHjKMiU2ttyQK-31" target="7esps-SJHjKMiU2ttyQK-21" edge="1">
          <mxGeometry width="160" relative="1" as="geometry">
            <mxPoint x="990" y="420" as="sourcePoint" />
            <mxPoint x="1410" y="520" as="targetPoint" />
          </mxGeometry>
        </mxCell>
        <mxCell id="7esps-SJHjKMiU2ttyQK-26" style="rounded=0;orthogonalLoop=1;jettySize=auto;html=1;endArrow=none;endFill=0;" parent="1" source="7esps-SJHjKMiU2ttyQK-27" target="7esps-SJHjKMiU2ttyQK-21" edge="1">
          <mxGeometry relative="1" as="geometry">
            <mxPoint x="1411.7543859649127" y="700.0000000000005" as="targetPoint" />
          </mxGeometry>
        </mxCell>
        <mxCell id="7esps-SJHjKMiU2ttyQK-27" value="&lt;h3 style=&quot;margin-top: 2px; line-height: 110%; margin-bottom: 2px;&quot;&gt;&lt;font style=&quot;font-size: 18px; line-height: 110%;&quot;&gt;AnswerObjインターフェース &amp;lt;&amp;lt;Interface&amp;gt;&amp;gt;&lt;/font&gt;&lt;/h3&gt;&lt;h4 style=&quot;margin-top: 2px; margin-bottom: 2px; line-height: 110%;&quot;&gt;&lt;font style=&quot;font-size: 16px; line-height: 110%;&quot;&gt;&lt;/font&gt;&lt;/h4&gt;&lt;h4 style=&quot;margin-top: 2px; margin-bottom: 2px; line-height: 13.2px;&quot;&gt;&lt;font style=&quot;font-size: 16px; line-height: 110%;&quot;&gt;[概要/趣旨]&lt;/font&gt;&lt;/h4&gt;&lt;div style=&quot;margin-top: 2px; margin-bottom: 2px;&quot;&gt;&lt;font style=&quot;font-size: 16px; line-height: 17.6px;&quot;&gt;&lt;span style=&quot;font-size: 12px; line-height: 110%;&quot;&gt;　問題に対する解答の情報を格納するクラスのためのインターフェース．&lt;/span&gt;&lt;/font&gt;&lt;/div&gt;&lt;p style=&quot;margin-top: 2px; margin-bottom: 2px; line-height: 13.2px; margin-right: 0px;&quot;&gt;&lt;br&gt;&lt;/p&gt;&lt;h4 style=&quot;margin-top: 2px; margin-bottom: 2px; line-height: 13.2px;&quot;&gt;&lt;font style=&quot;font-size: 16px; line-height: 17.6px;&quot;&gt;[メソッドの説明]&lt;/font&gt;&lt;/h4&gt;&lt;p style=&quot;line-height: 13.2px; margin-top: 2px; margin-bottom: 2px;&quot;&gt;&lt;b&gt;getAnsValue():&amp;nbsp;&lt;/b&gt;&lt;/p&gt;&lt;p style=&quot;line-height: 13.2px; margin-top: 2px; margin-bottom: 2px;&quot;&gt;　解答情報を取得するメソッド．&lt;b&gt;問題(出題)形式によって扱う解答情報の型が可変であることを考慮するため，&lt;/b&gt;インターフェースでの宣言では汎用的なObjectクラス(&lt;i&gt;java.lang.Object&lt;/i&gt;)を戻り値として宣言し，実装クラスではこれを適した戻り値にして&lt;b&gt;オーバーライド&lt;/b&gt;することとする．&lt;/p&gt;&lt;p style=&quot;line-height: 13.2px; margin-top: 2px; margin-bottom: 2px;&quot;&gt;&lt;b&gt;&lt;br&gt;&lt;/b&gt;&lt;/p&gt;&lt;p style=&quot;line-height: 13.2px; margin-top: 2px; margin-bottom: 2px;&quot;&gt;&lt;b&gt;&lt;br&gt;&lt;/b&gt;&lt;/p&gt;" style="shape=note;whiteSpace=wrap;html=1;backgroundOutline=1;darkOpacity=0.05;fillStyle=solid;direction=west;gradientDirection=north;shadow=1;size=20;pointerEvents=1;align=left;verticalAlign=top;" parent="1" vertex="1">
          <mxGeometry x="1220" y="758" width="380" height="400" as="geometry" />
        </mxCell>
        <mxCell id="7esps-SJHjKMiU2ttyQK-28" value="&lt;div&gt;&lt;span style=&quot;background-color: initial;&quot;&gt;AnswerObjImpl_4choices&lt;/span&gt;&lt;br&gt;&lt;/div&gt;" style="swimlane;fontStyle=1;align=center;verticalAlign=top;childLayout=stackLayout;horizontal=1;startSize=26;horizontalStack=0;resizeParent=1;resizeParentMax=0;resizeLast=0;collapsible=1;marginBottom=0;whiteSpace=wrap;html=1;fillColor=#dae8fc;strokeColor=#6c8ebf;strokeWidth=3;" parent="1" vertex="1">
          <mxGeometry x="1260" y="300" width="280" height="106" as="geometry" />
        </mxCell>
        <mxCell id="7esps-SJHjKMiU2ttyQK-29" value="&lt;div&gt;- ansValue: int&lt;/div&gt;" style="text;strokeColor=none;fillColor=none;align=left;verticalAlign=top;spacingLeft=4;spacingRight=4;overflow=hidden;rotatable=0;points=[[0,0.5],[1,0.5]];portConstraint=eastwest;whiteSpace=wrap;html=1;" parent="7esps-SJHjKMiU2ttyQK-28" vertex="1">
          <mxGeometry y="26" width="280" height="20" as="geometry" />
        </mxCell>
        <mxCell id="7esps-SJHjKMiU2ttyQK-30" value="" style="line;strokeWidth=1;fillColor=none;align=left;verticalAlign=middle;spacingTop=-1;spacingLeft=3;spacingRight=3;rotatable=0;labelPosition=right;points=[];portConstraint=eastwest;strokeColor=inherit;" parent="7esps-SJHjKMiU2ttyQK-28" vertex="1">
          <mxGeometry y="46" width="280" height="8" as="geometry" />
        </mxCell>
        <mxCell id="7esps-SJHjKMiU2ttyQK-31" value="+ getAnsValue(): Integer" style="text;strokeColor=none;fillColor=none;align=left;verticalAlign=top;spacingLeft=4;spacingRight=4;overflow=hidden;rotatable=0;points=[[0,0.5],[1,0.5]];portConstraint=eastwest;whiteSpace=wrap;html=1;" parent="7esps-SJHjKMiU2ttyQK-28" vertex="1">
          <mxGeometry y="54" width="280" height="52" as="geometry" />
        </mxCell>
        <mxCell id="7esps-SJHjKMiU2ttyQK-32" value="" style="endArrow=none;html=1;rounded=0;entryX=0.5;entryY=0;entryDx=0;entryDy=0;fillColor=#dae8fc;strokeColor=#6c8ebf;" parent="1" target="7esps-SJHjKMiU2ttyQK-28" edge="1">
          <mxGeometry relative="1" as="geometry">
            <mxPoint x="980" y="250" as="sourcePoint" />
            <mxPoint x="990" y="310" as="targetPoint" />
          </mxGeometry>
        </mxCell>
        <mxCell id="7esps-SJHjKMiU2ttyQK-33" value="&amp;nbsp;1" style="edgeLabel;resizable=0;html=1;align=left;verticalAlign=top;" parent="7esps-SJHjKMiU2ttyQK-32" connectable="0" vertex="1">
          <mxGeometry x="-1" relative="1" as="geometry" />
        </mxCell>
        <mxCell id="7esps-SJHjKMiU2ttyQK-34" value="&amp;nbsp;1" style="edgeLabel;resizable=0;html=1;align=left;verticalAlign=bottom;" parent="7esps-SJHjKMiU2ttyQK-32" connectable="0" vertex="1">
          <mxGeometry x="1" relative="1" as="geometry" />
        </mxCell>
      </root>
    </mxGraphModel>
  </diagram>
</mxfile>
